<svg width="96" height="96" viewBox="0 0 96 96" fill="none" xmlns="http://www.w3.org/2000/svg">
<circle cx="47.9993" cy="48" r="39.2727" fill="#536DFE" fill-opacity="0.2"/>
<path fill-rule="evenodd" clip-rule="evenodd" d="M73.9076 41.6657C73.9076 41.8235 73.7792 41.9515 73.6218 41.9515C73.4639 41.9515 73.3359 41.8235 73.3359 41.6657C73.3359 41.5079 73.4639 41.3799 73.6218 41.3799C73.7792 41.3799 73.9076 41.5079 73.9076 41.6657Z" fill="white"/>
<g filter="url(#filter0_d_8090_25439)">
<path fill-rule="evenodd" clip-rule="evenodd" d="M80.0131 51.3996H41.0142C39.0938 51.3996 37.5371 49.8429 37.5371 47.9225V20.472C37.5371 18.5516 39.0938 16.9949 41.0142 16.9949H80.0131C81.9335 16.9949 83.4906 18.5516 83.4906 20.472V47.9225C83.4906 49.8429 81.9335 51.3996 80.0131 51.3996Z" fill="white"/>
</g>
<g filter="url(#filter1_d_8090_25439)">
<path fill-rule="evenodd" clip-rule="evenodd" d="M41.0142 51.3996C39.0938 51.3996 37.5371 49.8429 37.5371 47.9225V20.472C37.5371 18.5516 39.0938 16.9949 41.0142 16.9949H80.0131C81.9335 16.9949 83.4906 18.5516 83.4906 20.472V47.9225C83.4906 49.8429 81.9335 51.3996 80.0131 51.3996H41.0142Z" fill="white"/>
</g>
<path fill-rule="evenodd" clip-rule="evenodd" d="M75.3217 25.1728H78.3093C78.7387 25.1728 79.0864 24.8252 79.0864 24.3961V21.4081C79.0864 20.9793 78.7387 20.6313 78.3093 20.6313H75.3217C74.8926 20.6313 74.5446 20.9793 74.5446 21.4081V24.3961C74.5446 24.8252 74.8926 25.1728 75.3217 25.1728ZM43.8718 24.0132C43.3396 24.0132 42.9082 23.5817 42.9082 23.0495C42.9082 22.5173 43.3396 22.0859 43.8718 22.0859H71.0675C71.5997 22.0859 72.0311 22.5173 72.0311 23.0495C72.0311 23.5817 71.5997 24.0132 71.0675 24.0132H43.8718Z" fill="#D9D9D9"/>
<path fill-rule="evenodd" clip-rule="evenodd" d="M75.3217 32.4455H78.3093C78.7387 32.4455 79.0864 32.0979 79.0864 31.6688V28.6808C79.0864 28.2521 78.7387 27.9041 78.3093 27.9041H75.3217C74.8926 27.9041 74.5446 28.2521 74.5446 28.6808V31.6688C74.5446 32.0979 74.8926 32.4455 75.3217 32.4455ZM43.8718 31.2859C43.3396 31.2859 42.9082 30.8544 42.9082 30.3222C42.9082 29.79 43.3396 29.3586 43.8718 29.3586H71.0675C71.5997 29.3586 72.0311 29.79 72.0311 30.3222C72.0311 30.8544 71.5997 31.2859 71.0675 31.2859H43.8718Z" fill="#D9D9D9"/>
<path fill-rule="evenodd" clip-rule="evenodd" d="M75.3217 40.0817H78.3093C78.7387 40.0817 79.0864 39.7341 79.0864 39.305V36.317C79.0864 35.8883 78.7387 35.5403 78.3093 35.5403H75.3217C74.8926 35.5403 74.5446 35.8883 74.5446 36.317V39.305C74.5446 39.7341 74.8926 40.0817 75.3217 40.0817ZM43.8718 38.9221C43.3396 38.9221 42.9082 38.4907 42.9082 37.9585C42.9082 37.4263 43.3396 36.9948 43.8718 36.9948H71.0675C71.5997 36.9948 72.0311 37.4263 72.0311 37.9585C72.0311 38.4907 71.5997 38.9221 71.0675 38.9221H43.8718Z" fill="#D9D9D9"/>
<path fill-rule="evenodd" clip-rule="evenodd" d="M75.3217 47.7182H78.3093C78.7387 47.7182 79.0864 47.3702 79.0864 46.9415V43.9535C79.0864 43.5248 78.7387 43.1768 78.3093 43.1768H75.3217C74.8926 43.1768 74.5446 43.5248 74.5446 43.9535V46.9415C74.5446 47.3702 74.8926 47.7182 75.3217 47.7182ZM43.8718 46.1949C43.3396 46.1949 42.9082 45.7635 42.9082 45.2313C42.9082 44.6991 43.3396 44.2677 43.8718 44.2677H71.0675C71.5997 44.2677 72.0311 44.6991 72.0311 45.2313C72.0311 45.7635 71.5997 46.1949 71.0675 46.1949H43.8718Z" fill="#D9D9D9"/>
<rect x="41.0898" y="25.0908" width="4" height="4.72727" fill="#004FC4"/>
<g filter="url(#filter2_dd_8090_25439)">
<rect x="36" y="22.1816" width="14.5455" height="4.36364" rx="2.18182" fill="#3CC196"/>
</g>
<g filter="url(#filter3_d_8090_25439)">
<path fill-rule="evenodd" clip-rule="evenodd" d="M63.1737 37.7371C71.7115 48.4695 69.9326 64.0913 59.2001 72.6291C48.4677 81.1669 32.8459 79.3876 24.3085 68.6556C15.7703 57.9231 17.5492 42.3013 28.2817 33.7635C39.0141 25.2257 54.6359 27.0046 63.1737 37.7371Z" fill="url(#paint0_linear_8090_25439)"/>
</g>
<path d="M58.8729 40.8393C65.5995 49.2946 64.1979 61.6015 55.7424 68.3277C47.2875 75.0539 34.9805 73.6524 28.2543 65.1971C21.5278 56.7422 22.9297 44.435 31.3846 37.7087C39.8401 30.9825 52.1467 32.3841 58.8729 40.8393Z" fill="#F3FAFF"/>
<path d="M34.579 64.1378C35.559 63.1578 36.5391 62.1777 37.5214 61.1954C38.9566 59.7602 40.3895 58.3273 41.8247 56.8921C42.2311 56.4857 42.6375 56.0793 43.0463 55.6705C43.4318 55.285 43.4643 54.5744 43.0463 54.1935C42.6282 53.8127 41.9826 53.7802 41.5693 54.1935C40.5892 55.1736 39.6092 56.1536 38.6269 57.1359C37.1916 58.5711 35.7588 60.004 34.3236 61.4392C33.9171 61.8456 33.5107 62.252 33.102 62.6608C32.7165 63.0463 32.684 63.7569 33.102 64.1378C33.52 64.5186 34.1656 64.5512 34.579 64.1378Z" fill="#003078"/>
<g filter="url(#filter4_d_8090_25439)">
<path fill-rule="evenodd" clip-rule="evenodd" d="M41.3932 36.7486C41.7983 36.6879 42.078 36.3105 42.0172 35.905C41.9569 35.4995 41.579 35.2203 41.174 35.281C40.7681 35.3414 40.4892 35.7192 40.5496 36.1246C40.6103 36.5297 40.9878 36.809 41.3932 36.7486ZM50.9771 37.312C50.8273 37.693 50.396 37.8807 50.0149 37.7305C49.6338 37.5803 49.4462 37.1494 49.5964 36.768C49.7466 36.3869 50.1775 36.1992 50.5589 36.3498C50.94 36.5 51.1273 36.9305 50.9771 37.312ZM33.4356 40.2091C33.7564 39.9542 33.8094 39.4873 33.5545 39.1666C33.2993 38.8458 32.8327 38.7927 32.5116 39.0476C32.1909 39.3029 32.1378 39.7698 32.3931 40.0906C32.6484 40.4113 33.1149 40.4644 33.4356 40.2091ZM28.2742 47.1848C28.4244 46.8037 28.2371 46.3728 27.856 46.2226C27.4746 46.0724 27.044 46.2597 26.8939 46.6412C26.7433 47.0223 26.9309 47.4532 27.312 47.6034C27.6935 47.7535 28.124 47.5663 28.2742 47.1848ZM26.449 55.1825C26.8541 55.1218 27.232 55.4014 27.2923 55.8065C27.353 56.2119 27.0738 56.5898 26.6687 56.6501C26.2629 56.7108 25.8854 56.4316 25.8247 56.0261C25.764 55.6207 26.044 55.2432 26.449 55.1825ZM30.753 63.7641C30.4981 63.4434 30.0312 63.3903 29.7104 63.6456C29.3897 63.9009 29.3366 64.3674 29.5919 64.6881C29.8468 65.0089 30.3137 65.062 30.6344 64.807C30.9552 64.5518 31.0082 64.0849 30.753 63.7641ZM36.7665 69.3439C36.9167 68.9628 37.3476 68.7756 37.7287 68.9254C38.1102 69.0756 38.2974 69.5065 38.1473 69.8879C37.9974 70.269 37.5662 70.4566 37.1847 70.3061C36.804 70.1559 36.6164 69.7254 36.7665 69.3439ZM46.3508 69.9072C45.9457 69.968 45.6657 70.3454 45.7264 70.7509C45.7871 71.1563 46.1646 71.4356 46.57 71.3749C46.9755 71.3145 47.2548 70.9367 47.194 70.5312C47.1337 70.1262 46.7558 69.8469 46.3508 69.9072ZM54.1895 67.4893C53.9346 67.1686 53.9873 66.7017 54.308 66.4468C54.6288 66.1915 55.0957 66.245 55.3506 66.5653C55.6062 66.8861 55.5528 67.353 55.232 67.6082C54.9113 67.8631 54.4448 67.8101 54.1895 67.4893ZM59.4694 59.4712C59.3196 59.8523 59.5065 60.2832 59.888 60.4334C60.2694 60.5836 60.7 60.396 60.8502 60.0149C61.0007 59.6334 60.8131 59.2029 60.4316 59.0527C60.0505 58.9025 59.6196 59.0898 59.4694 59.4712ZM61.2949 51.4733C60.8895 51.5341 60.512 51.2544 60.4513 50.8493C60.3909 50.4439 60.6702 50.0661 61.0753 50.0057C61.4807 49.945 61.8586 50.2246 61.9189 50.6297C61.9797 51.0351 61.7 51.4126 61.2949 51.4733ZM56.9907 42.8915C57.246 43.2123 57.7125 43.2653 58.0332 43.0104C58.3543 42.7552 58.407 42.2883 58.1521 41.9675C57.8969 41.6468 57.4303 41.5937 57.1096 41.849C56.7885 42.1039 56.7358 42.5712 56.9907 42.8915Z" fill="#3CC196"/>
</g>
<g filter="url(#filter5_d_8090_25439)">
<path d="M46.9421 51.5469C47.9482 53.2139 47.4125 55.3811 45.7451 56.3873C44.0781 57.3934 41.9109 56.8573 40.9048 55.1899C39.8986 53.5229 40.4351 51.3557 42.1021 50.3499C43.7691 49.3438 45.9363 49.8799 46.9421 51.5469Z" fill="#3CC196"/>
</g>
<defs>
<filter id="filter0_d_8090_25439" x="36.5371" y="16.9949" width="47.9531" height="36.4048" filterUnits="userSpaceOnUse" color-interpolation-filters="sRGB">
<feFlood flood-opacity="0" result="BackgroundImageFix"/>
<feColorMatrix in="SourceAlpha" type="matrix" values="0 0 0 0 0 0 0 0 0 0 0 0 0 0 0 0 0 0 127 0" result="hardAlpha"/>
<feOffset dy="1"/>
<feGaussianBlur stdDeviation="0.5"/>
<feColorMatrix type="matrix" values="0 0 0 0 0 0 0 0 0 0 0 0 0 0 0 0 0 0 0.116805 0"/>
<feBlend mode="normal" in2="BackgroundImageFix" result="effect1_dropShadow_8090_25439"/>
<feBlend mode="normal" in="SourceGraphic" in2="effect1_dropShadow_8090_25439" result="shape"/>
</filter>
<filter id="filter1_d_8090_25439" x="36.5371" y="16.9949" width="47.9531" height="36.4048" filterUnits="userSpaceOnUse" color-interpolation-filters="sRGB">
<feFlood flood-opacity="0" result="BackgroundImageFix"/>
<feColorMatrix in="SourceAlpha" type="matrix" values="0 0 0 0 0 0 0 0 0 0 0 0 0 0 0 0 0 0 127 0" result="hardAlpha"/>
<feOffset dy="1"/>
<feGaussianBlur stdDeviation="0.5"/>
<feColorMatrix type="matrix" values="0 0 0 0 0 0 0 0 0 0 0 0 0 0 0 0 0 0 0.116805 0"/>
<feBlend mode="normal" in2="BackgroundImageFix" result="effect1_dropShadow_8090_25439"/>
<feBlend mode="normal" in="SourceGraphic" in2="effect1_dropShadow_8090_25439" result="shape"/>
</filter>
<filter id="filter2_dd_8090_25439" x="34" y="21.1816" width="18.5449" height="8.36353" filterUnits="userSpaceOnUse" color-interpolation-filters="sRGB">
<feFlood flood-opacity="0" result="BackgroundImageFix"/>
<feColorMatrix in="SourceAlpha" type="matrix" values="0 0 0 0 0 0 0 0 0 0 0 0 0 0 0 0 0 0 127 0" result="hardAlpha"/>
<feOffset dy="1"/>
<feGaussianBlur stdDeviation="1"/>
<feColorMatrix type="matrix" values="0 0 0 0 0 0 0 0 0 0 0 0 0 0 0 0 0 0 0.32 0"/>
<feBlend mode="normal" in2="BackgroundImageFix" result="effect1_dropShadow_8090_25439"/>
<feColorMatrix in="SourceAlpha" type="matrix" values="0 0 0 0 0 0 0 0 0 0 0 0 0 0 0 0 0 0 127 0" result="hardAlpha"/>
<feOffset/>
<feGaussianBlur stdDeviation="0.5"/>
<feColorMatrix type="matrix" values="0 0 0 0 0.156863 0 0 0 0 0.160784 0 0 0 0 0.239216 0 0 0 0.08 0"/>
<feBlend mode="normal" in2="effect1_dropShadow_8090_25439" result="effect2_dropShadow_8090_25439"/>
<feBlend mode="normal" in="SourceGraphic" in2="effect2_dropShadow_8090_25439" result="shape"/>
</filter>
<filter id="filter3_d_8090_25439" x="17.9082" y="28.3635" width="51.666" height="51.6655" filterUnits="userSpaceOnUse" color-interpolation-filters="sRGB">
<feFlood flood-opacity="0" result="BackgroundImageFix"/>
<feColorMatrix in="SourceAlpha" type="matrix" values="0 0 0 0 0 0 0 0 0 0 0 0 0 0 0 0 0 0 127 0" result="hardAlpha"/>
<feOffset dy="1"/>
<feGaussianBlur stdDeviation="0.5"/>
<feColorMatrix type="matrix" values="0 0 0 0 0 0 0 0 0 0 0 0 0 0 0 0 0 0 0.469597 0"/>
<feBlend mode="normal" in2="BackgroundImageFix" result="effect1_dropShadow_8090_25439"/>
<feBlend mode="normal" in="SourceGraphic" in2="effect1_dropShadow_8090_25439" result="shape"/>
</filter>
<filter id="filter4_d_8090_25439" x="24.8164" y="34.2727" width="38.1113" height="38.1106" filterUnits="userSpaceOnUse" color-interpolation-filters="sRGB">
<feFlood flood-opacity="0" result="BackgroundImageFix"/>
<feColorMatrix in="SourceAlpha" type="matrix" values="0 0 0 0 0 0 0 0 0 0 0 0 0 0 0 0 0 0 127 0" result="hardAlpha"/>
<feOffset/>
<feGaussianBlur stdDeviation="0.5"/>
<feColorMatrix type="matrix" values="0 0 0 0 0.156863 0 0 0 0 0.160784 0 0 0 0 0.239216 0 0 0 0.08 0"/>
<feBlend mode="normal" in2="BackgroundImageFix" result="effect1_dropShadow_8090_25439"/>
<feBlend mode="normal" in="SourceGraphic" in2="effect1_dropShadow_8090_25439" result="shape"/>
</filter>
<filter id="filter5_d_8090_25439" x="39.3965" y="48.8423" width="9.05273" height="9.05249" filterUnits="userSpaceOnUse" color-interpolation-filters="sRGB">
<feFlood flood-opacity="0" result="BackgroundImageFix"/>
<feColorMatrix in="SourceAlpha" type="matrix" values="0 0 0 0 0 0 0 0 0 0 0 0 0 0 0 0 0 0 127 0" result="hardAlpha"/>
<feOffset/>
<feGaussianBlur stdDeviation="0.5"/>
<feColorMatrix type="matrix" values="0 0 0 0 0.156863 0 0 0 0 0.160784 0 0 0 0 0.239216 0 0 0 0.08 0"/>
<feBlend mode="normal" in2="BackgroundImageFix" result="effect1_dropShadow_8090_25439"/>
<feBlend mode="normal" in="SourceGraphic" in2="effect1_dropShadow_8090_25439" result="shape"/>
</filter>
<linearGradient id="paint0_linear_8090_25439" x1="18.9082" y1="28.3635" x2="18.9082" y2="78.029" gradientUnits="userSpaceOnUse">
<stop stop-color="#5B8DEF"/>
<stop offset="1" stop-color="#0063F7"/>
</linearGradient>
</defs>
</svg>
