<svg width="96" height="96" viewBox="0 0 96 96" fill="none" xmlns="http://www.w3.org/2000/svg">
<circle cx="47.9993" cy="48" r="39.2727" fill="#536DFE" fill-opacity="0.2"/>
<path d="M75.3349 29.8161C75.1329 29.8029 74.9339 29.7073 74.7794 29.5325C74.4586 29.1632 74.4675 28.5729 74.8032 28.2167L77.4858 25.3511C77.8185 24.9949 78.3503 25.0048 78.6741 25.3775C78.9949 25.7468 78.986 26.3371 78.6503 26.6932L75.9677 29.5589C75.7924 29.7468 75.5607 29.8326 75.3349 29.8161Z" fill="#FF5C5C"/>
<path d="M73.4381 28.1752C72.9857 28.148 72.6298 27.768 72.6388 27.3096L72.6811 25.0898C72.6901 24.6193 73.0792 24.2453 73.5497 24.2543C74.0111 24.2694 74.3942 24.6524 74.3851 25.1229L74.3429 27.3427C74.3339 27.8132 73.9448 28.1872 73.4743 28.1782C73.4622 28.1752 73.4502 28.1752 73.4381 28.1752Z" fill="#FF5C5C"/>
<path d="M76.524 31.7449C76.0716 31.7178 75.7157 31.3377 75.7248 30.8793C75.7338 30.4088 76.1229 30.0348 76.5934 30.0439L78.8162 30.0861C79.2807 30.1012 79.6607 30.4842 79.6516 30.9547C79.6426 31.4252 79.2535 31.7992 78.783 31.7901L76.5632 31.7479C76.5482 31.7479 76.5361 31.7479 76.524 31.7449Z" fill="#FF5C5C"/>
<path d="M64.6616 40.7671C63.0148 40.7671 61.6817 39.431 61.6817 37.7842V21.9561C61.6817 15.544 56.464 10.3262 50.0519 10.3262H47.0057C40.5936 10.3262 35.3759 15.544 35.3759 21.9561V37.7842C35.3759 39.431 34.0428 40.7671 32.393 40.7671C30.7463 40.7671 29.4102 39.431 29.4102 37.7842V21.9561C29.4132 12.2565 37.3061 4.36353 47.0057 4.36353H50.0489C59.7484 4.36353 67.6414 12.2565 67.6414 21.9561V37.7842C67.6414 39.431 66.3083 40.7671 64.6616 40.7671Z" fill="#004FC4"/>
<g filter="url(#filter0_dd_8090_25730)">
<path d="M74.5082 69.1709C74.5082 71.9939 72.219 74.2831 69.396 74.2831H27.6571C24.8341 74.28 22.5449 71.9939 22.5449 69.1709V34.203C22.5449 31.38 24.8341 29.0908 27.6571 29.0908H69.396C72.219 29.0908 74.5082 31.38 74.5082 34.203V69.1709Z" fill="url(#paint0_linear_8090_25730)"/>
</g>
<rect opacity="0.378185" x="30.1816" y="44.3635" width="36.3636" height="14.5454" rx="7.27272" fill="#E6E6E6"/>
<g filter="url(#filter1_d_8090_25730)">
<path fill-rule="evenodd" clip-rule="evenodd" d="M39.0159 55.6468L38.8867 52.8495L41.2864 54.3666L42.0205 53.1068L39.4726 51.8285L42.0195 50.5481L41.2844 49.2889L38.8859 50.8079L39.0129 48.0105L37.5505 48.011L37.6797 50.8083L35.28 49.2913L34.5459 50.551L37.0938 51.8294L34.5469 53.1097L35.282 54.3689L37.6805 52.85L37.5535 55.6474L39.0159 55.6468ZM48.9155 55.6429L48.7863 52.8456L51.186 54.3627L51.9201 53.1029L49.3722 51.8246L51.919 50.5442L51.184 49.285L48.7855 50.804L48.9125 48.0066L47.4501 48.0071L47.5792 50.8044L45.1796 49.2874L44.4455 50.5471L46.9933 51.8255L44.4465 53.1059L45.1816 54.365L47.58 52.8461L47.4531 55.6435L48.9155 55.6429ZM58.8151 55.639L58.6859 52.8418L61.0856 54.3588L61.8197 53.099L59.2718 51.8207L61.8186 50.5403L61.0836 49.2812L58.6851 50.8001L58.8121 48.0027L57.3497 48.0033L57.4788 50.8006L55.0792 49.2835L54.3451 50.5433L56.8929 51.8216L54.3461 53.102L55.0812 54.3612L57.4796 52.8422L57.3527 55.6396L58.8151 55.639Z" fill="white"/>
</g>
<defs>
<filter id="filter0_dd_8090_25730" x="20.5449" y="25.0908" width="55.9629" height="53.1921" filterUnits="userSpaceOnUse" color-interpolation-filters="sRGB">
<feFlood flood-opacity="0" result="BackgroundImageFix"/>
<feColorMatrix in="SourceAlpha" type="matrix" values="0 0 0 0 0 0 0 0 0 0 0 0 0 0 0 0 0 0 127 0" result="hardAlpha"/>
<feOffset dy="2"/>
<feGaussianBlur stdDeviation="1"/>
<feColorMatrix type="matrix" values="0 0 0 0 0 0 0 0 0 0 0 0 0 0 0 0 0 0 0.469597 0"/>
<feBlend mode="normal" in2="BackgroundImageFix" result="effect1_dropShadow_8090_25730"/>
<feColorMatrix in="SourceAlpha" type="matrix" values="0 0 0 0 0 0 0 0 0 0 0 0 0 0 0 0 0 0 127 0" result="hardAlpha"/>
<feOffset dy="-2"/>
<feGaussianBlur stdDeviation="1"/>
<feColorMatrix type="matrix" values="0 0 0 0 0 0 0 0 0 0 0 0 0 0 0 0 0 0 0.185094 0"/>
<feBlend mode="normal" in2="effect1_dropShadow_8090_25730" result="effect2_dropShadow_8090_25730"/>
<feBlend mode="normal" in="SourceGraphic" in2="effect2_dropShadow_8090_25730" result="shape"/>
</filter>
<filter id="filter1_d_8090_25730" x="33.5469" y="48.0027" width="29.2734" height="9.64478" filterUnits="userSpaceOnUse" color-interpolation-filters="sRGB">
<feFlood flood-opacity="0" result="BackgroundImageFix"/>
<feColorMatrix in="SourceAlpha" type="matrix" values="0 0 0 0 0 0 0 0 0 0 0 0 0 0 0 0 0 0 127 0" result="hardAlpha"/>
<feOffset dy="1"/>
<feGaussianBlur stdDeviation="0.5"/>
<feColorMatrix type="matrix" values="0 0 0 0 0 0 0 0 0 0 0 0 0 0 0 0 0 0 0.116805 0"/>
<feBlend mode="normal" in2="BackgroundImageFix" result="effect1_dropShadow_8090_25730"/>
<feBlend mode="normal" in="SourceGraphic" in2="effect1_dropShadow_8090_25730" result="shape"/>
</filter>
<linearGradient id="paint0_linear_8090_25730" x1="22.5449" y1="29.0908" x2="22.5449" y2="74.2831" gradientUnits="userSpaceOnUse">
<stop stop-color="#5B8DEF"/>
<stop offset="1" stop-color="#0063F7"/>
</linearGradient>
</defs>
</svg>
