<svg width="96" height="96" viewBox="0 0 96 96" fill="none" xmlns="http://www.w3.org/2000/svg">
<circle cx="47.9993" cy="48" r="39.2727" fill="#536DFE" fill-opacity="0.2"/>
<g filter="url(#filter0_d_8090_25491)">
<path d="M12.7266 37.0908C12.7266 30.4634 18.0991 25.0908 24.7266 25.0908H53.8175C60.4449 25.0908 65.8175 30.4634 65.8175 37.0908V75.2726C65.8175 81.9 60.4449 87.2726 53.8175 87.2726H24.7266C18.0991 87.2726 12.7266 81.9001 12.7266 75.2726V37.0908Z" fill="white"/>
</g>
<ellipse cx="39.8176" cy="20.1819" rx="5.27273" ry="5.27273" fill="#FFA539"/>
<mask id="mask0_8090_25491" style="mask-type:alpha" maskUnits="userSpaceOnUse" x="34" y="14" width="12" height="12">
<ellipse cx="39.9384" cy="20.164" rx="5.25485" ry="5.25485" fill="#FF9B00"/>
</mask>
<g mask="url(#mask0_8090_25491)">
<rect x="33.3691" y="17.865" width="12.8087" height="6.897" fill="#FF7900"/>
</g>
<path d="M8.72717 81.8181C8.72717 81.8181 8.59266 86.481 12.3228 87.0221C16.0529 87.5598 58.9084 87.0647 58.9084 87.0647C58.9084 87.0647 56.2254 86.081 55.0739 81.8181H8.72717Z" fill="#3A4D57"/>
<path d="M26.3715 54.1819H21.6329C20.5315 54.1819 19.6367 53.2907 19.6367 52.1857V47.4507C19.6367 46.3494 20.5279 45.4546 21.6329 45.4546H26.3678C27.4692 45.4546 28.364 46.3458 28.364 47.4507V52.1857C28.364 53.2907 27.4728 54.1819 26.3715 54.1819Z" fill="#D9D9D9"/>
<rect x="30.5449" y="46.5454" width="32.7273" height="2.18182" rx="1.09091" fill="#D9D9D9"/>
<rect x="30.5449" y="50.9092" width="22.5455" height="2.18182" rx="1.09091" fill="#D9D9D9"/>
<path d="M26.3715 65.8181H21.6329C20.5315 65.8181 19.6367 64.9269 19.6367 63.8219V59.087C19.6367 57.9856 20.5279 57.0908 21.6329 57.0908H26.3678C27.4692 57.0908 28.364 57.982 28.364 59.087V63.8219C28.364 64.9269 27.4728 65.8181 26.3715 65.8181Z" fill="#D9D9D9"/>
<rect x="30.5449" y="58.1819" width="32.7273" height="2.18182" rx="1.09091" fill="#D9D9D9"/>
<rect x="30.5449" y="62.5454" width="22.5455" height="2.18182" rx="1.09091" fill="#D9D9D9"/>
<path d="M26.3715 77.4546H21.6329C20.5315 77.4546 19.6367 76.5634 19.6367 75.4584V70.7234C19.6367 69.6221 20.5279 68.7273 21.6329 68.7273H26.3678C27.4692 68.7273 28.364 69.6185 28.364 70.7234V75.4584C28.364 76.5634 27.4728 77.4546 26.3715 77.4546Z" fill="#D9D9D9"/>
<rect x="30.5449" y="69.8181" width="32.7273" height="2.18182" rx="1.09091" fill="#D9D9D9"/>
<rect x="30.5449" y="74.1819" width="22.5455" height="2.18182" rx="1.09091" fill="#D9D9D9"/>
<g filter="url(#filter1_d_8090_25491)">
<path d="M26.3715 41.8181H21.6329C20.5315 41.8181 19.6367 40.9269 19.6367 39.8219V35.087C19.6367 33.9856 20.5279 33.0908 21.6329 33.0908H26.3678C27.4692 33.0908 28.364 33.982 28.364 35.087V39.8219C28.364 40.9269 27.4728 41.8181 26.3715 41.8181Z" fill="#3CC196"/>
</g>
<rect x="30.5449" y="34.1819" width="28.3636" height="2.18182" rx="1.09091" fill="#D9D9D9"/>
<rect x="30.5449" y="38.5454" width="22.5455" height="2.18182" rx="1.09091" fill="#D9D9D9"/>
<path d="M29.4551 27.2728C29.4551 23.0554 32.874 19.6365 37.0914 19.6365H42.546C46.7634 19.6365 50.1823 23.0554 50.1823 27.2728H29.4551Z" fill="#FF9B00"/>
<path fill-rule="evenodd" clip-rule="evenodd" d="M25.8187 36.5772L22.8496 39.2727L21.4551 38.0067L22.053 37.4295L22.8496 38.1527L25.2208 36L25.8187 36.5772Z" fill="white"/>
<path fill-rule="evenodd" clip-rule="evenodd" d="M77.2408 84.8445L79.9635 87.5672C80.4069 88.0139 80.3773 88.7134 79.9635 89.1634C79.5497 89.6133 78.7844 89.5805 78.3673 89.1634L75.6447 86.4407C75.198 85.994 75.2309 85.2945 75.6447 84.8445C76.0585 84.3946 76.8237 84.4274 77.2408 84.8445ZM55.7189 86.5852L53.1408 89.1634C52.6974 89.61 51.9978 89.5772 51.5446 89.1634C51.3344 88.9729 51.2129 88.6412 51.2129 88.3653C51.2129 88.0763 51.341 87.7708 51.5446 87.5672L54.1228 84.9891C54.5694 84.5424 55.269 84.5752 55.7189 84.9891C55.9291 85.1795 56.0506 85.5113 56.0506 85.7871C56.0506 86.0762 55.9225 86.3816 55.7189 86.5852Z" fill="#004FC4"/>
<g filter="url(#filter2_d_8090_25491)">
<path d="M65.7563 89.5345C79.4709 89.5345 90.5887 78.4167 90.5887 64.7021C90.5887 50.9875 79.4709 39.8696 65.7563 39.8696C52.0417 39.8696 40.9238 50.9875 40.9238 64.7021C40.9238 78.4167 52.0417 89.5345 65.7563 89.5345Z" fill="url(#paint0_linear_8090_25491)"/>
</g>
<path d="M65.7559 84.2666C76.561 84.2666 85.3203 75.5073 85.3203 64.7022C85.3203 53.897 76.561 45.1377 65.7559 45.1377C54.9507 45.1377 46.1914 53.897 46.1914 64.7022C46.1914 75.5073 54.9507 84.2666 65.7559 84.2666Z" fill="#F3FAFF"/>
<path d="M64.709 52.6586C64.709 54.0446 64.709 55.4306 64.709 56.8198C64.709 58.8495 64.709 60.8759 64.709 62.9056C64.709 63.4803 64.709 64.0551 64.709 64.6331C64.709 65.1783 65.1885 65.7038 65.7534 65.6775C66.3183 65.6512 66.7978 65.2177 66.7978 64.6331C66.7978 63.2472 66.7978 61.8612 66.7978 60.4719C66.7978 58.4422 66.7978 56.4158 66.7978 54.3862C66.7978 53.8114 66.7978 53.2367 66.7978 52.6586C66.7978 52.1134 66.3183 51.588 65.7534 51.6142C65.1885 51.6405 64.709 52.074 64.709 52.6586Z" fill="#003078"/>
<path d="M65.0006 64.088C62.9052 66.1833 60.8099 68.2787 58.7112 70.3774C58.3499 70.7386 57.9854 71.1032 57.6241 71.4645C57.2366 71.852 57.207 72.5614 57.6241 72.9424C58.0412 73.3266 58.6882 73.3562 59.102 72.9424C61.1974 70.847 63.2928 68.7516 65.3914 66.653C65.7527 66.2917 66.1173 65.9272 66.4785 65.5659C66.8661 65.1783 66.8956 64.4689 66.4785 64.088C66.0614 63.7037 65.4111 63.6741 65.0006 64.088Z" fill="#003078"/>
<path fill-rule="evenodd" clip-rule="evenodd" d="M53.3917 51.9656L54.7022 53.276C54.804 53.3811 54.7974 53.542 54.7022 53.6438C54.6069 53.7489 54.4296 53.7391 54.3343 53.6438L53.0239 52.3334C52.9221 52.2316 52.9287 52.0707 53.0239 51.9656C53.1191 51.8605 53.2965 51.8703 53.3917 51.9656ZM76.8086 53.276L78.119 51.9655C78.2241 51.8637 78.385 51.8703 78.4868 51.9655C78.5919 52.0608 78.5821 52.2381 78.4868 52.3334L77.1764 53.6438C77.0746 53.7456 76.9137 53.739 76.8086 53.6438C76.7035 53.5486 76.7133 53.3712 76.8086 53.276ZM53.0205 77.064L54.3309 75.7536C54.436 75.6518 54.5969 75.6583 54.6988 75.7536C54.8039 75.8488 54.794 76.0262 54.6988 76.1214L53.3883 77.4318C53.2865 77.5337 53.1256 77.5271 53.0205 77.4318C52.9154 77.3366 52.9252 77.1592 53.0205 77.064ZM78.4901 77.0673L77.1797 75.7569C77.0844 75.6617 76.9071 75.6518 76.8118 75.7569C76.7166 75.862 76.71 76.0229 76.8118 76.1247L78.1222 77.4352C78.2175 77.5304 78.3948 77.5403 78.4901 77.4352C78.5853 77.3301 78.5919 77.1691 78.4901 77.0673Z" fill="#8CA5FF"/>
<path fill-rule="evenodd" clip-rule="evenodd" d="M67.2771 46.9506C67.3132 47.7716 66.5512 48.4712 65.7564 48.4712C64.9025 48.4712 64.2719 47.7749 64.2358 46.9506C64.1997 46.1295 64.9616 45.4299 65.7564 45.4299C66.6104 45.4299 67.2409 46.1262 67.2771 46.9506ZM67.2771 82.4471C67.3132 83.2681 66.5512 83.9677 65.7564 83.9677C64.9025 83.9677 64.2719 83.2714 64.2358 82.4471C64.1997 81.626 64.9616 80.9264 65.7564 80.9264C66.6104 80.9264 67.2409 81.6227 67.2771 82.4471ZM48.0082 66.2194C48.803 66.2194 49.5649 65.5199 49.5288 64.6988C49.4927 63.8745 48.8621 63.1782 48.0082 63.1782C47.2134 63.1782 46.4514 63.8778 46.4876 64.6988C46.5237 65.5232 47.1543 66.2194 48.0082 66.2194ZM85.022 64.6988C85.0582 65.5199 84.2962 66.2194 83.5014 66.2194C82.6508 66.2194 82.0202 65.5232 81.9808 64.6988C81.9447 63.8778 82.7066 63.1782 83.5014 63.1782C84.3553 63.1782 84.9859 63.8745 85.022 64.6988Z" fill="#8CA5FF"/>
<path d="M65.7561 67.3822C67.2363 67.3822 68.4361 66.1823 68.4361 64.7022C68.4361 63.2221 67.2363 62.0222 65.7561 62.0222C64.276 62.0222 63.0762 63.2221 63.0762 64.7022C63.0762 66.1823 64.276 67.3822 65.7561 67.3822Z" fill="#004FC4"/>
<defs>
<filter id="filter0_d_8090_25491" x="8.41481" y="22.9349" width="61.7153" height="70.8054" filterUnits="userSpaceOnUse" color-interpolation-filters="sRGB">
<feFlood flood-opacity="0" result="BackgroundImageFix"/>
<feColorMatrix in="SourceAlpha" type="matrix" values="0 0 0 0 0 0 0 0 0 0 0 0 0 0 0 0 0 0 127 0" result="hardAlpha"/>
<feOffset dy="2.15588"/>
<feGaussianBlur stdDeviation="2.15588"/>
<feColorMatrix type="matrix" values="0 0 0 0 0.054902 0 0 0 0 0.117647 0 0 0 0 0.243137 0 0 0 0.08 0"/>
<feBlend mode="normal" in2="BackgroundImageFix" result="effect1_dropShadow_8090_25491"/>
<feBlend mode="normal" in="SourceGraphic" in2="effect1_dropShadow_8090_25491" result="shape"/>
</filter>
<filter id="filter1_d_8090_25491" x="18.6367" y="32.0908" width="10.7266" height="10.7273" filterUnits="userSpaceOnUse" color-interpolation-filters="sRGB">
<feFlood flood-opacity="0" result="BackgroundImageFix"/>
<feColorMatrix in="SourceAlpha" type="matrix" values="0 0 0 0 0 0 0 0 0 0 0 0 0 0 0 0 0 0 127 0" result="hardAlpha"/>
<feOffset/>
<feGaussianBlur stdDeviation="0.5"/>
<feColorMatrix type="matrix" values="0 0 0 0 0.156863 0 0 0 0 0.160784 0 0 0 0 0.239216 0 0 0 0.08 0"/>
<feBlend mode="normal" in2="BackgroundImageFix" result="effect1_dropShadow_8090_25491"/>
<feBlend mode="normal" in="SourceGraphic" in2="effect1_dropShadow_8090_25491" result="shape"/>
</filter>
<filter id="filter2_d_8090_25491" x="39.9238" y="39.8696" width="51.6641" height="51.6648" filterUnits="userSpaceOnUse" color-interpolation-filters="sRGB">
<feFlood flood-opacity="0" result="BackgroundImageFix"/>
<feColorMatrix in="SourceAlpha" type="matrix" values="0 0 0 0 0 0 0 0 0 0 0 0 0 0 0 0 0 0 127 0" result="hardAlpha"/>
<feOffset dy="1"/>
<feGaussianBlur stdDeviation="0.5"/>
<feColorMatrix type="matrix" values="0 0 0 0 0 0 0 0 0 0 0 0 0 0 0 0 0 0 0.469597 0"/>
<feBlend mode="normal" in2="BackgroundImageFix" result="effect1_dropShadow_8090_25491"/>
<feBlend mode="normal" in="SourceGraphic" in2="effect1_dropShadow_8090_25491" result="shape"/>
</filter>
<linearGradient id="paint0_linear_8090_25491" x1="40.9238" y1="39.8696" x2="40.9238" y2="89.5345" gradientUnits="userSpaceOnUse">
<stop stop-color="#5B8DEF"/>
<stop offset="1" stop-color="#0063F7"/>
</linearGradient>
</defs>
</svg>
